<svg
    xmlns="http://www.w3.org/2000/svg" viewBox="0 -3.5 32 32"  preserveAspectRatio="none"
>
<path d="M 2 2 h 30 v 23 h -30" style="fill:#808080;"/>
<path d="M 0 0 h 30 v 23 h -30" style="fill:#000000;"/>

<path d="M 3 2 h 1 v 1 h -1" style="fill:#FFFFFF;"/>
<path d="M 2 3 h 1 v 17 h -1" style="fill:#FFFFFF;"/>
<path d="M 3 20 h 1 v 1 h -1" style="fill:#FFFFFF;"/>
<path d="M 4 3 h 1 v -1 h 9 v 3 h -1 v 2 h 1 v 9 h -1 v 2 h 1 v 3 h -9 v -1 h -1" style="fill:#FFFFFF;"/>

<path d="M 7 5 h 1 v -1 h 2 v 7 h 1 v 2 h -4 v -2 h 1 v -4 h -1" style="fill:#ba3667;"/>


<path d="M 5 15 h 7 v 1 h -7" style="fill:#000000;"/>
<path d="M 5 17 h 7 v 1 h -7" style="fill:#000000;"/>


<path d="M 14 5 h 2 v 1 h -2" style="fill:#FFFFFF;"/>
<path d="M 14 16 h 2 v 1 h -2" style="fill:#FFFFFF;"/>


<path d="M 16 2 h 9 v 1 h 1 v 17 h -1 v 1 h -9 v -3 h 1 v -2 h -1 v -9 h 1 v -2 h -1" style="fill:#FFFFFF;"/>
<path d="M 26 2 h 1 v 1 h -1" style="fill:#FFFFFF;"/>
<path d="M 27 3 h 1 v 17 h -1" style="fill:#FFFFFF;"/>
<path d="M 26 20 h 1 v 1 h -1" style="fill:#FFFFFF;"/>

<path d="M 18 15 h 7 v 1 h -7" style="fill:#000000;"/>
<path d="M 18 17 h 7 v 1 h -7" style="fill:#000000;"/>

<path d="M 19 5 h 1 v -1 h 3 v 1 h 1 v 3 h -1 v 1 h -1 v 1 h -1 v 1 h 3 v 2 h -5 v -4 h 1 v -1 h 1 v -1 h 1 v -1 h -1 v 1 h -2" style="fill:#ba3667;"/>

</svg>