<svg
    xmlns="http://www.w3.org/2000/svg" viewBox="0 -0.5 16 16"  preserveAspectRatio="none"
>
<path d="M0,7h1v-3h2v-1h2v-1h2v-1h2v-1h1v1h2v1h2v1h2v9h-1v-3h-2v4h-1v-3h-1v1h-1v4h-1v-3h-3v-1h-2v-1h-2v1h-2" style="fill:#c0c0c0;"/>

<path d="M1,7h1v1h2v1h2v1h3v2h-3v-1h-2v-1h-2v1h-1" style="fill:#000000;"/>
<path d="M10,8h1v1h1v1h-1v1h-1" style="fill:#000000;"/>
<path d="M12,7h3v2h-2v-1h-1" style="fill:#000000;"/>
<path d="M15,6h1v-2h-1" style="fill:#000000;"/>
<path d="M13,2h1v1h-1" style="fill:#000000;"/>
<path d="M11,1h1v1h-1" style="fill:#000000;"/>

<path d="M9,9h1v1h-1" style="fill:#202020;"/>
<path d="M6,9h2v1h-2" style="fill:#202020;"/>
<path d="M4,8h1v1h-1" style="fill:#202020;"/>
<path d="M2,7h1v1h-1" style="fill:#202020;"/>
<path d="M2,7h1v1h-1" style="fill:#202020;"/>
<path d="M15,6h1v1h-1" style="fill:#202020;"/>

<path d="M3,3h1v1h-1" style="fill:#303030;"/>
<path d="M5,2h1v1h-1" style="fill:#303030;"/>
<path d="M7,1h1v1h-1" style="fill:#303030;"/>

<path d="M9,14h1v1h-1" style="fill:#3f3f3f;"/>
<path d="M8,9h1v1h-1" style="fill:#3f3f3f;"/>
<path d="M11,8h1v1h-1" style="fill:#3f3f3f;"/>
<path d="M14,6h1v1h-1" style="fill:#3f3f3f;"/>
<path d="M15,11h1v1h-1" style="fill:#3f3f3f;"/>
<path d="M0,10h1v1h-1" style="fill:#3f3f3f;"/>
<path d="M15,3h1v1h-1" style="fill:#3f3f3f;"/>
<path d="M9,0h1v1h-1" style="fill:#3f3f3f;"/>

<path d="M9,10h1v4h-1" style="fill:#404040;"/>
<path d="M15,7h1v4h-1" style="fill:#404040;"/>
<path d="M11,8h2v4h-1v-5h-1" style="fill:#404040;"/>
<path d="M1,5h1v2h-1" style="fill:#404040;"/>
<path d="M7,8h1v1h-1" style="fill:#404040;"/>
<path d="M9,8h1v1h-1" style="fill:#404040;"/>
<path d="M13,6h1v1h-1" style="fill:#404040;"/>

<path d="M12,12h1v1h-1" style="fill:#5f5f5f;"/>

<path d="M3,7h1v1h-1" style="fill:#606060;"/>
<path d="M5,8h1v1h-1" style="fill:#606060;"/>
<path d="M8,7h1v1h-1" style="fill:#606060;"/>
<path d="M10,6h1v1h-1" style="fill:#606060;"/>
<path d="M12,5h1v1h-1" style="fill:#606060;"/>
<path d="M14,3h1v2h-1" style="fill:#606060;"/>
<path d="M10,1h1v1h-1" style="fill:#606060;"/>
<path d="M12,2h1v1h-1" style="fill:#606060;"/>
<path d="M0,7h1v3h-1" style="fill:#606060;"/>

<path d="M1,4h1v1h-1" style="fill:#6f6f6f;"/>

<path d="M2,5h1v1h-1" style="fill:#707070;"/>
<path d="M4,6h1v1h-1" style="fill:#707070;"/>
<path d="M6,7h1v1h-1" style="fill:#707070;"/>

<path d="M2,6h2v2h7v-3h1v1h3v-1h-1v-1h-1v3h-3v-1h-1v3h-1v-2h-1v2h-1v-2h-4" style="fill:#808080;"/>

<path d="M2,4h1v1h-1" style="fill:#909090;"/>
<path d="M3,5h1v1h-1" style="fill:#909090;"/>
<path d="M5,6h1v1h-1" style="fill:#909090;"/>
<path d="M4,3h1v1h-1" style="fill:#909090;"/>
<path d="M6,2h1v1h-1" style="fill:#909090;"/>
<path d="M8,1h1v1h-1" style="fill:#909090;"/>
</svg>