<svg
    xmlns="http://www.w3.org/2000/svg" viewBox="-1 0 16 16"  preserveAspectRatio="none"
>
<path d="M 4 0 h 4 v 1 h 4 v 1 h 1 v 5 h -1 v 3 h 1 v 3 h -1 v 1 h -2 v 1 h -3 v -3 h -7 v -3 h 1 v -7 h 1 v -1 h 2" style="fill:#808080;"/>

<path d="M 4 1 h 4 v 1 h 2 v 2 h -1 v 1 h -1 v -1 h -1 v -1 h -2 v -1 h -1" style="fill:#c0c0c0;"/>
<path d="M 2 2 h 1 v 6 h 2 v 1 h 2 v -4 h 1 v 6 h -1 v -1 h -2 v -1 h -2 v -1 h -1" style="fill:#c0c0c0;"/>
<path d="M 11 2 h 1 v 1 h 1 v 1 h -2" style="fill:#c0c0c0;"/>
<path d="M 2 9 h 1 v 1 h -1" style="fill:#c0c0c0;"/>
<path d="M 4 10 h 1 v 1 h -1" style="fill:#c0c0c0;"/>
<path d="M 6 11 h 1 v 1 h -1" style="fill:#c0c0c0;"/>
<path d="M 1 10 h 1 v 1 h 2 v 1 h 2 v 1 h 2 v 2 h -1 v -1 h -2 v -1 h -2 v -1 h -2" style="fill:#c0c0c0;"/>
<path d="M 8 12 h 2 v -1 h 2 v -1 h 1 v 1 h -1 v 1 h -2 v 1 h -2" style="fill:#c0c0c0;"/>

<path d="M 1 9 h 1 v 1 h 2 v 1 h 2 v 1 h 2 v 1 h -2 v -1 h -2 v -1 h -2 v -1 h -1" style="fill:#ffffff;"/>
<path d="M 3 2 h 2 v 1 h 2 v 1 h 1 v 1 h -1 v -1 h -2 v -1 h -2" style="fill:#ffffff;"/>


<path d="M 1 12 h 2 v 1 h 2 v 1 h 2 v 1 h 3 v -1 h 2 v -1 h 1 v -3 h -1 v -1 h 1 v 1 h 1 v 4 h -2 v 1 h -2 v 1 h -3 v -1 h -2 v -1 h -2 v -1 h -2" style="fill:#000000;"/>
<path d="M 2 8 h 1 v 1 h 2 v 1 h 2 v 1 h 2 v -1 h 1 v -7 h 1 v 5 h 1 v -1 h 1 v -4 h 1 v 4 h -1 v 1 h -1 v 1 h -1 v 2 h -2 v 1 h -2 v -1 h -2 v -1 h -2 v -1 h -1" style="fill:#000000;"/>

<path d="M 3 4 h 3 v 1 h 1 v 4 h -2 v -1 h -2" style="fill:#0000ff;"/>
<path d="M 4 4 h 2 v 1 h 1 v 1 h -1 v -1 h -2" style="fill:#000080;"/>
<path d="M 4 5 h 1 v 1 h 1 v 1 h -1 v -1 h -1" style="fill:#00ffff;"/>
</svg>