<svg
    xmlns="http://www.w3.org/2000/svg" viewBox="0 0 15 13"  preserveAspectRatio="meet"
>
<path d="M0 3h1v-1h2v-1h1.5v1h6v-1h1.5v1h2v1h1v9h-1v1h-13v-1h-1" style="fill:#000000;"/>
<path d="M4 0h7v1h-7" style="fill:#000000;"/>
<path d="M1 3h13v9h-13" style="fill:#d28523;"/>
<path d="M3 5h2v6h-2" style="fill:#b27628;"/>
<path d="M6 5h3v6h-3" style="fill:#b27628;"/>
<path d="M10 5h2v6h-2" style="fill:#b27628;"/>
<path d="M3 1h1.5v1h0.5v1h-2" style="fill:#b82d2d;"/>
<path d="M10 2h0.5v-1h1.5v2h-2" style="fill:#b82d2d;"/>
<path d="M4 1h1v1h-1" style="fill:#ffffff;"/>
<path d="M10 1h1v1h-1" style="fill:#ffffff;"/>
</svg>