<svg
    xmlns="http://www.w3.org/2000/svg" viewBox="0 0 16 16"  preserveAspectRatio="none"
>
<path d="M 5 0 h 5 v 3 h 4 v 2 h 1 v 10 h -12 v -1 h -1 v -1 h -1 v -2 h -1 v -6 h 1 v -2 h 1 v -1 h 1 v -1 h 2" style="fill:#808080;"/>


<path d="M 7 2 h 1 v 1 h -1" style="fill:#008000;"/>
<path d="M 9 2 h 2 v 1 h -2" style="fill:#008000;"/>
<path d="M 5 3 h 1 v 2 h -2 v -1 h 1" style="fill:#008000;"/>
<path d="M 5 6 h 1 v 1 h -1" style="fill:#008000;"/>
<path d="M 3 6 h 1 v 1 h -1" style="fill:#008000;"/>
<path d="M 2 11 h 1 v 1 h -1" style="fill:#008000;"/>
<path d="M 1 10 h 1 v 1 h -1" style="fill:#008000;"/>


<path d="M 7 4 h 6 v 1 h 1 v 9 h -7" style="fill:#ffffff;"/>


<path d="M 6 2 h 3 v 1 h -1 v -2 h -1 v 2 h -1" style="fill:#0000ff;"/>
<path d="M 10 1 h 2 v 2 h -1 v -1 h -1" style="fill:#0000ff;"/>
<path d="M 9 6 h 2 v 1 h -2" style="fill:#0000ff;"/>
<path d="M 8 8 h 5 v 1 h -5" style="fill:#0000ff;"/>
<path d="M 8 10 h 5 v 1 h -5" style="fill:#0000ff;"/>
<path d="M 8 12 h 5 v 1 h -5" style="fill:#0000ff;"/>
<path d="M 4 5 h 2 v 1 h -1 v 1 h -1" style="fill:#0000ff;"/>
<path d="M 2 6 h 1 v 1 h -1" style="fill:#0000ff;"/>
<path d="M 2 10 h 1 v -1 h 1 v 1 h 1 v 1 h 1 v 2 h -1 v 1 h -2 v -1 h -1 v -1 h -1 v -1 h 1 v 1 h 1 v -1 h -1" style="fill:#0000ff;"/>

<path d="M 12 2 h 1 v 1 h -1" style="fill:#0000c0;"/>
<path d="M 1 12 h 1 v 1 h 1 v 1 h 2 v -1 h 1 v 2 h -3 v -1 h -1 v -1 h -1" style="fill:#0000c0;"/>

<path d="M 1 8 h 1 v 2 h -1" style="fill:#008080;"/>
<path d="M 4 9 h 1 v 1 h -1" style="fill:#008080;"/>
<path d="M 4 3 h 1 v 1 h -1" style="fill:#008080;"/>
<path d="M 8 1 h 2 v 1 h -2" style="fill:#008080;"/>

<path d="M 12 6 h 4 v 10 h -11 v -1 h 10 v -8 h -3" style="fill:#000000;"/>
<path d="M 13 3 h 1 v 1 h -1" style="fill:#000000;"/>

<path d="M 7 14 h 7 v -7 h 1 v 8 h -8" style="fill:#c0c0c0;"/>
<path d="M 12 4 h 1 v 2 h -1" style="fill:#c0c0c0;"/>
<path d="M 5 10 h 1 v 1 h -1" style="fill:#c0c0c0;"/>
<path d="M 2 8 h 1 v -1 h 2 v 2 h -2 v 1 h -1" style="fill:#c0c0c0;"/>
<path d="M 1 8 h 1 v -2 h 2 v -3 h 2 v -2 h -1 v 1 h -2 v 1 h -1 v 2 h -1" style="fill:#c0c0c0;"/>


<path d="M 2 7 h 1 v 1 h -1" style="fill:#ffffff;"/>
<path d="M 1 6 h 1 v 1 h -1" style="fill:#ffffff;"/>
<path d="M 2 5 h 1 v 1 h -1" style="fill:#ffffff;"/>
<path d="M 2 3 h 1 v 1 h -1" style="fill:#ffffff;"/>
<path d="M 3 4 h 1 v 1 h -1" style="fill:#ffffff;"/>
<path d="M 3 2 h 1 v 1 h -1" style="fill:#ffffff;"/>
<path d="M 5 2 h 1 v 1 h -1" style="fill:#ffffff;"/>
<path d="M 6 1 h 1 v 1 h -1" style="fill:#ffffff;"/>

<path d="M 9 4 h 1 v 1 h -1" style="fill:#ffff00;"/>
<path d="M 7 5 h 1 v 1 h -1" style="fill:#ffff00;"/>
<path d="M 11 5 h 1 v 1 h -1" style="fill:#ffff00;"/>
<path d="M 7 7 h 1 v 1 h -1" style="fill:#ffff00;"/>
<path d="M 11 7 h 1 v 1 h -1" style="fill:#ffff00;"/>
<path d="M 7 9 h 1 v 1 h -1" style="fill:#ffff00;"/>
<path d="M 11 9 h 1 v 1 h -1" style="fill:#ffff00;"/>
<path d="M 7 11 h 1 v 1 h -1" style="fill:#ffff00;"/>
<path d="M 11 11 h 1 v 1 h -1" style="fill:#ffff00;"/>
<path d="M 7 13 h 1 v 1 h -1" style="fill:#ffff00;"/>
<path d="M 11 13 h 1 v 1 h -1" style="fill:#ffff00;"/>
<path d="M 13 8 h 1 v 1 h -1" style="fill:#ffff00;"/>
<path d="M 13 10 h 1 v 1 h -1" style="fill:#ffff00;"/>
<path d="M 13 12 h 1 v 1 h -1" style="fill:#ffff00;"/>
</svg>