<svg
    xmlns="http://www.w3.org/2000/svg" viewBox="0 0 19 19"  preserveAspectRatio="meet"
>
<path d="M0 6h1v-2h1v-1h1v-1h1v-1h2v-1h7v1h2v1h1v1h1v1h1v2h1v7h-1v2h-1v1h-1v1h-1v1h-2v1h-7v-1h-2v-1h-1v-1h-1v-1h-1v-2h-1" style="fill:#000000;"/>
<path d="M1 6h1v-2h2v-1h1v-1h1v-1h7v1h1v1h1v1h2v2h1v7h-1v2h-2v1h-1v1h-1v1h-7v-1h-1v-1h-1v-1h-2v-2h-1" style="fill:#0822ff;"/>
<path d="M3 12h2v-1h4v1h1v3h-1v2h1v1h-3v-1h-1v-1h-1v-1h-1v-1h-1" style="fill:#75ea00;"/>
<path d="M15 13h2v2h-2" style="fill:#75ea00;"/>
<path d="M7 7h2v-1h1v-1h7v1h1v5h-2v-1h-4v-1h-2v1h1v1h-2v-2h-2" style="fill:#75ea00;"/>
</svg>