<svg
    xmlns="http://www.w3.org/2000/svg" viewBox="0 0 22 22"  preserveAspectRatio="meet"
>
<path d="M0 9h5v-1h-1v-1h-1v-4h4v1h1v1h1v-5h4v5h1v-1h1v-1h4v4h-1v1h-1v1h5v4h-5v1h1v1h1v4h-4v-1h-1v-1h-1v5h-4v-5h-1v1h-1v1h-4v-4h1v-1h1v-1h-5" style="fill:#000000;"/>
<path d="M1 10h5v2h-5" style="fill:#8cc4c4;"/>
<path d="M16 10h5v2h-5" style="fill:#8cc4c4;"/>
<path d="M10 1h2v5h-2" style="fill:#8cc4c4;"/>
<path d="M10 1h2v5h-2" style="fill:#8cc4c4;"/>
<path d="M10 16h2v5h-2" style="fill:#8cc4c4;"/>
<path d="M4 4h2v1h1v1h1v2h-2v-1h-1v-1h-1" style="fill:#8cc4c4;"/>
<path d="M14 14h2v1h1v1h1v2h-2v-1h-1v-1h-1" style="fill:#8cc4c4;"/>
<path d="M4 16h1v-1h1v-1h2v2h-1v1h-1v1h-2" style="fill:#8cc4c4;"/>
<path d="M14 6h1v-1h1v-1h2v2h-1v1h-1v1h-2" style="fill:#8cc4c4;"/>
<path d="M9 8h4v1h1v4h-1v1h-4v-1h-1v-4h1" style="fill:#8cc4c4;"/>
<path d="M10 9h2v1h1v2h-1v1h-2v-1h-1v-2h1" style="fill:#000000;"/>
</svg>