<svg
    xmlns="http://www.w3.org/2000/svg" viewBox="0 0 16 16"  preserveAspectRatio="none"
>
<!-- green -->
<path d="M 0 3 h 1 v -1 h 1 v -1 h 2 v -1 h 8 v 1 h 2 v 1 h 1 v 1 h 1 v 4 h -1 v 1 h -2 v 1 h -1 v 1 h -1 v 1 h -1 v 1 h -1 v 3 h 1 v 1 h -5 v -1 h 1 v -4 h -1 v -1 h -1 v -1 h -1 v -1 h -1 v -1 h -1 v -1 h -1" style="fill:#008000;"/>

<!-- black -->
<path d="M 1 6 h 1 v 1 h 1 v -1 h 1 v 1 h 2 v 1 h 1 v -1 h 1 v 1 h 1 v -1 h 1 v 1 h 1 v -1 h 1 v 1 h 1 v -1 h 1 v -1 h 1 v -2h 1 v 3 h -1 v 1 h -2 v 1 h -1 v 1 h -1 v -1 h -2 v 2 h 1 v 1 h -1 v 3 h 1 v 1 h -5 v -1 h 3 v -6 h -2 v -1 h -4 v -1 h -1" style="fill:#000000;"/>
<rect x="10" y="6" height="1" width="1" style="fill:#000000;"/>
<rect x="12" y="6" height="1" width="1" style="fill:#000000;"/>
<rect x="11" y="5" height="1" width="1" style="fill:#000000;"/>
<rect x="13" y="5" height="1" width="1" style="fill:#000000;"/>
<rect x="10" y="10" height="1" width="1" style="fill:#000000;"/>

<!-- white -->
<rect x="1" y="3" height="1" width="1" style="fill:#FFFFFF;"/>
<rect x="4" y="1" height="1" width="1" style="fill:#FFFFFF;"/>
<rect x="5" y="8" height="1" width="1" style="fill:#FFFFFF;"/>

<!-- dark brown -->
<rect x="7" y="9" height="6" width="1" style="fill:#800000;"/>
<rect x="4" y="8" height="1" width="1" style="fill:#800000;"/>
<rect x="5" y="9" height="1" width="1" style="fill:#800000;"/>
<rect x="10" y="9" height="1" width="1" style="fill:#800000;"/>
<rect x="9" y="10" height="1" width="1" style="fill:#800000;"/>

<!-- light brown -->
<path d="M 3 8 h 1 v 1 h 1 v 1 h 1 v -1 h 1 v 6h -1 v -4 h -1 v -1 h -1 v -1 h -1" style="fill:#808000;"/>

<!-- grey -->
<rect x="9" y="9" height="1" width="1" style="fill:#C0C0C0;"/>

<!-- yellow -->
<rect x="2" y="2" height="1" width="1" style="fill:#FFFF00;"/>
<rect x="5" y="2" height="1" width="1" style="fill:#FFFF00;"/>
<rect x="6" y="1" height="1" width="1" style="fill:#FFFF00;"/>

<!-- light green -->
<rect x="9" y="1" height="1" width="1" style="fill:#00FF00;"/>
<rect x="11" y="1" height="1" width="1" style="fill:#00FF00;"/>

<rect x="4" y="2" height="1" width="1" style="fill:#00FF00;"/>
<rect x="7" y="2" height="1" width="1" style="fill:#00FF00;"/>
<rect x="10" y="2" height="1" width="1" style="fill:#00FF00;"/>

<rect x="13" y="3" height="1" width="1" style="fill:#00FF00;"/>
<rect x="9" y="3" height="1" width="1" style="fill:#00FF00;"/>
<rect x="6" y="3" height="1" width="1" style="fill:#00FF00;"/>
<rect x="3" y="3" height="1" width="1" style="fill:#00FF00;"/>

<rect x="11" y="4" height="1" width="1" style="fill:#00FF00;"/>
<rect x="5" y="4" height="1" width="1" style="fill:#00FF00;"/>
<rect x="7" y="4" height="1" width="1" style="fill:#00FF00;"/>
<rect x="1" y="4" height="1" width="1" style="fill:#00FF00;"/>

<rect x="4" y="5" height="1" width="1" style="fill:#00FF00;"/>
<rect x="6" y="5" height="2" width="1" style="fill:#00FF00;"/>
<rect x="8" y="5" height="1" width="1" style="fill:#00FF00;"/>
<rect x="10" y="5" height="1" width="1" style="fill:#00FF00;"/>
<rect x="12" y="5" height="1" width="1" style="fill:#00FF00;"/>

<rect x="2" y="6" height="1" width="1" style="fill:#00FF00;"/>
</svg> 