<svg
    xmlns="http://www.w3.org/2000/svg" viewBox="0 0 19 17"  preserveAspectRatio="meet"
>
<path d="M2 0h15v7h1v1h1v2h-1v1h-1v4h-1v2h-3v-1h-7v1h-3v-2h-1v-4h-1v-1h-1v-2h1v-1h1" style="fill:#000000;"/>
<path d="M2 1h6v1h-1v4h2v-4h1v4h2v-4h-1v-1h6v1h-1v5h-1v1h-4v-1h-1v3h-1v-3h-1v1h-4v-1h-1v-5h-1" style="fill:#57a8a8;"/>
<path d="M1 8h2v2h-2" style="fill:#57a8a8;"/>
<path d="M16 8h2v2h-2" style="fill:#57a8a8;"/>
<path d="M3 11h1v-2h1v4h-2" style="fill:#57a8a8;"/>
<path d="M14 9h1v2h1v2h-2" style="fill:#57a8a8;"/>
<path d="M3 11h1v-2h1v4h-2" style="fill:#57a8a8;"/>
<path d="M8 3h3v2h-3" style="fill:#fffefe;"/>
<path d="M9 11h1v1h-1" style="fill:#fffefe;"/>
<path d="M2 8h1v2h-1" style="fill:#fffefe;"/>
<path d="M16 8h1v2h-1" style="fill:#fffefe;"/>
<path d="M4 14h2v2h-2" style="fill:#fffefe;"/>
<path d="M13 14h2v2h-2" style="fill:#fffefe;"/>
<path d="M7 15h5v1h-5" style="fill:#fffefe;"/>
<path d="M2 1h1v1h-1" style="fill:#c6b6b6;"/>
<path d="M16 1h1v1h-1" style="fill:#c6b6b6;"/>
<path d="M1 9h2v1h-2" style="fill:#c6b6b6;"/>
<path d="M16 9h2v1h-2" style="fill:#c6b6b6;"/>
<path d="M4 14h1v2h-1" style="fill:#c6b6b6;"/>
<path d="M14 14h1v2h-1" style="fill:#c6b6b6;"/>
<path d="M6 9v4h1v1h1v1h1v-1h1v1h1v-1h1v-1h1v-4h-1v1h-1v3h-3v-4h3v1h-4v-1" style="fill:#c6b6b6;"/>
</svg>