<svg
    xmlns="http://www.w3.org/2000/svg" viewBox="0 0 16 14"  preserveAspectRatio="none"
>
<path d="M 0 2 h 1 v 2 h -1" style="fill:#000000;"/>
<path d="M 0 11 h 1 v 2 h -1" style="fill:#000000;"/>
<path d="M 2 3 h 1 v 1 h 1 v -1 h 2 v -1 h 1 v -1 h 2 v -1 h 4 v 1 h 2 v 1 h 1 v 12 h -1 v -1 h -2 v -1 h -4 v 1 h -2 v 1 h -5 v -2 h 1 v 1 h 1 v -1 h 2 v -7 h -4" style="fill:#000000;"/>

<path d="M 0 5 h 1 v 2 h -1" style="fill:#FF0000;"/>
<path d="M 2 6 h 1 v 1 h 1 v -1 h 2 v 2 h -4" style="fill:#FF0000;"/>
<path d="M 8 3 h 1 v -1 h 1 v 3 h -1 v 1 h -1" style="fill:#FF0000;"/>

<path d="M 0 8 h 1 v 2 h -1" style="fill:#0000FF;"/>
<path d="M 2 9 h 1 v 1 h 1 v -1 h 2 v 2 h -4" style="fill:#0000FF;"/>
<path d="M 8 8 h 1 v -1 h 1 v 3 h -1 v 1 h -1" style="fill:#0000FF;"/>

<path d="M 12 2 h 1 v 1 h 1 v 3 h -1 v -1 h -1" style="fill:#00FF00;"/>

<path d="M 12 7 h 1 v 1 h 1 v 3 h -1 v -1 h -1" style="fill:#FFFF00;"/>
</svg>