<svg
    xmlns="http://www.w3.org/2000/svg" viewBox="0 0 16 16"  preserveAspectRatio="meet"
>
<path d="M5 0h6v1h2v1h1v1h1v2h1v6h-1v2h-1v1h-1v1h-2v1h-6v-1h-2v-1h-1v-1h-1v-2h-1v-6h1v-2h1v-1h1v-1h2" style="fill:#000000;"/>
<path d="M6 1h4v1h2v1h1v1h1v2h1v4h-1v2h-1v1h-1v1h-2v1h-4v-1h-2v-1h-1v-1h-1v-2h-1v-4h1v-2h1v-1h1v-1h2" style="fill:#ffffff;"/>
<path d="M1 10h1v-2h1v-1h1v-1h1v-1h3v-2h1v1h1v1h1v1h-1v1h-1v1h-1v-2h-1v1h-1v2h-1v4h1v-1h2v-1h2v-1h-1v-1h1v-1h1v1h1v1h-1v3h-1v1h1v2h-6v-1h-2v-1h-1v-1h-1" style="fill:#000000;"/>
</svg>