<svg
    xmlns="http://www.w3.org/2000/svg" viewBox="0 0 16 16"  preserveAspectRatio="none"
>
<path d="M 5 0 h 6 v 1 h 2 v 1 h 1 v 1 h 1 v 2 h 1 v 6 h -1 v 2 h -1 v 1 h -1 v 1 h -2 v 1 h -6 v -1 h -2 v -1 h -1 v -1 h -1 v -2 h -1 v -6 h 1 v -2 h 1 v -1 h 1 v -1 h 2" style="fill:#000000;"/>
<path d="M 6 1 h4v1h2v1h1v1h1v2h1v4h-1v2h-1v1h-1v1h-2v1h-4v-1h-2v-1h-1v-1h-1v-2h-1v-4h1v-2h1v-1h1v-1h2" style="fill:#ffffff;"/>

<path d="M 1 10 h1v-2h1v-1h1v-1h1v-1h3v-2h1v1h1v1h1v1h-1v1h-1v1h-1v-2h-1v1h-1v2h-1v4h1v-1h2v-1h2v-1h-1v-1h1v-1h1v1h1v1h-1v3h-1v1h1v2h-6v-1h-2v-1h-1v-1h-1" style="fill:#000000;"/>
</svg>